<mxfile host="65bd71144e">
    <diagram id="AFdhs72boC64GxJhA1Na" name="Page-1">
        <mxGraphModel dx="1093" dy="651" grid="1" gridSize="10" guides="1" tooltips="1" connect="1" arrows="1" fold="1" page="1" pageScale="1" pageWidth="850" pageHeight="1100" math="0" shadow="0">
            <root>
                <mxCell id="0"/>
                <mxCell id="1" parent="0"/>
                <mxCell id="2" value="START" style="ellipse;whiteSpace=wrap;html=1;fillColor=#f8cecc;strokeColor=#b85450;" vertex="1" parent="1">
                    <mxGeometry x="361" y="118" width="70" height="40" as="geometry"/>
                </mxCell>
                <mxCell id="3" value="HOMEPAGE" style="rounded=0;whiteSpace=wrap;html=1;fillColor=#cce5ff;strokeColor=#36393d;" vertex="1" parent="1">
                    <mxGeometry x="357" y="262" width="74" height="30" as="geometry"/>
                </mxCell>
                <mxCell id="4" value="LOGIN" style="rhombus;whiteSpace=wrap;html=1;fillColor=#cdeb8b;strokeColor=#36393d;" vertex="1" parent="1">
                    <mxGeometry x="363" y="192" width="66" height="40" as="geometry"/>
                </mxCell>
                <mxCell id="5" value="" style="endArrow=classic;html=1;exitX=0.5;exitY=1;exitDx=0;exitDy=0;entryX=0.5;entryY=0;entryDx=0;entryDy=0;" edge="1" parent="1" source="2" target="4">
                    <mxGeometry width="50" height="50" relative="1" as="geometry">
                        <mxPoint x="400" y="382" as="sourcePoint"/>
                        <mxPoint x="450" y="332" as="targetPoint"/>
                    </mxGeometry>
                </mxCell>
                <mxCell id="6" value="" style="endArrow=classic;html=1;entryX=0.5;entryY=0;entryDx=0;entryDy=0;" edge="1" parent="1" source="4">
                    <mxGeometry width="50" height="50" relative="1" as="geometry">
                        <mxPoint x="398" y="232" as="sourcePoint"/>
                        <mxPoint x="396" y="262" as="targetPoint"/>
                    </mxGeometry>
                </mxCell>
                <mxCell id="7" value="REGISTER" style="rounded=0;whiteSpace=wrap;html=1;fillColor=#e51400;strokeColor=#B20000;fontColor=#ffffff;" vertex="1" parent="1">
                    <mxGeometry x="510" y="197" width="74" height="30" as="geometry"/>
                </mxCell>
                <mxCell id="51" value="" style="edgeStyle=none;html=1;fontColor=#000000;" edge="1" parent="1" source="9" target="11">
                    <mxGeometry relative="1" as="geometry"/>
                </mxCell>
                <mxCell id="9" value="VIEW" style="rhombus;whiteSpace=wrap;html=1;fillColor=#cdeb8b;strokeColor=#36393d;" vertex="1" parent="1">
                    <mxGeometry x="361" y="322" width="66" height="40" as="geometry"/>
                </mxCell>
                <mxCell id="10" value="MENU" style="rounded=0;whiteSpace=wrap;html=1;fillColor=#cce5ff;strokeColor=#36393d;" vertex="1" parent="1">
                    <mxGeometry x="358" y="392" width="74" height="30" as="geometry"/>
                </mxCell>
                <mxCell id="11" value="SELECT" style="rhombus;whiteSpace=wrap;html=1;fillColor=#cdeb8b;strokeColor=#36393d;" vertex="1" parent="1">
                    <mxGeometry x="362" y="452" width="66" height="40" as="geometry"/>
                </mxCell>
                <mxCell id="12" value="PRODUCT TYPE" style="rounded=0;whiteSpace=wrap;html=1;fillColor=#cce5ff;strokeColor=#36393d;" vertex="1" parent="1">
                    <mxGeometry x="358" y="522" width="74" height="30" as="geometry"/>
                </mxCell>
                <mxCell id="13" value="ADD" style="rhombus;whiteSpace=wrap;html=1;fillColor=#cdeb8b;strokeColor=#36393d;" vertex="1" parent="1">
                    <mxGeometry x="363" y="582" width="66" height="40" as="geometry"/>
                </mxCell>
                <mxCell id="14" value="CART" style="rounded=0;whiteSpace=wrap;html=1;fillColor=#cce5ff;strokeColor=#36393d;" vertex="1" parent="1">
                    <mxGeometry x="358" y="652" width="74" height="30" as="geometry"/>
                </mxCell>
                <mxCell id="15" value="MY CART" style="rounded=0;whiteSpace=wrap;html=1;fillColor=#cce5ff;strokeColor=#36393d;" vertex="1" parent="1">
                    <mxGeometry x="220" y="280" width="74" height="30" as="geometry"/>
                </mxCell>
                <mxCell id="16" value="MY SELECTION" style="rhombus;whiteSpace=wrap;html=1;fillColor=#cdeb8b;strokeColor=#36393d;" vertex="1" parent="1">
                    <mxGeometry x="140" y="190" width="90" height="60" as="geometry"/>
                </mxCell>
                <mxCell id="17" value="CONTINUE SHOPPING" style="rounded=0;whiteSpace=wrap;html=1;" vertex="1" parent="1">
                    <mxGeometry x="224" y="150" width="74" height="30" as="geometry"/>
                </mxCell>
                <mxCell id="20" value="CHECKOUT" style="rounded=0;whiteSpace=wrap;html=1;fillColor=#cce5ff;strokeColor=#36393d;" vertex="1" parent="1">
                    <mxGeometry x="140" y="330" width="74" height="30" as="geometry"/>
                </mxCell>
                <mxCell id="21" value="PAYMENT" style="rounded=0;whiteSpace=wrap;html=1;fillColor=#cce5ff;strokeColor=#36393d;" vertex="1" parent="1">
                    <mxGeometry x="140" y="400" width="74" height="30" as="geometry"/>
                </mxCell>
                <mxCell id="22" value="PAYMENT TYPE" style="rhombus;whiteSpace=wrap;html=1;fillColor=#cdeb8b;strokeColor=#36393d;" vertex="1" parent="1">
                    <mxGeometry x="137" y="450" width="80" height="60" as="geometry"/>
                </mxCell>
                <mxCell id="23" value="CASH ON DELIVERY" style="rounded=0;whiteSpace=wrap;html=1;fillColor=#cce5ff;strokeColor=#36393d;" vertex="1" parent="1">
                    <mxGeometry x="224" y="540" width="74" height="30" as="geometry"/>
                </mxCell>
                <mxCell id="24" value="ONLINE" style="rounded=0;whiteSpace=wrap;html=1;fillColor=#cce5ff;strokeColor=#36393d;" vertex="1" parent="1">
                    <mxGeometry x="40" y="540" width="74" height="30" as="geometry"/>
                </mxCell>
                <mxCell id="25" value="ORDER PLACED" style="rounded=0;whiteSpace=wrap;html=1;fillColor=#cce5ff;strokeColor=#36393d;" vertex="1" parent="1">
                    <mxGeometry x="136" y="604" width="74" height="30" as="geometry"/>
                </mxCell>
                <mxCell id="26" value="END" style="ellipse;whiteSpace=wrap;html=1;fillColor=#f8cecc;strokeColor=#b85450;" vertex="1" parent="1">
                    <mxGeometry x="138" y="673" width="70" height="40" as="geometry"/>
                </mxCell>
                <mxCell id="29" value="" style="endArrow=classic;html=1;entryX=0.5;entryY=0;entryDx=0;entryDy=0;exitX=0.5;exitY=1;exitDx=0;exitDy=0;" edge="1" parent="1" source="3" target="9">
                    <mxGeometry width="50" height="50" relative="1" as="geometry">
                        <mxPoint x="430" y="312" as="sourcePoint"/>
                        <mxPoint x="430" y="342" as="targetPoint"/>
                    </mxGeometry>
                </mxCell>
                <mxCell id="30" value="" style="endArrow=classic;html=1;exitX=0.5;exitY=1;exitDx=0;exitDy=0;entryX=0.5;entryY=0;entryDx=0;entryDy=0;" edge="1" parent="1" source="9" target="10">
                    <mxGeometry width="50" height="50" relative="1" as="geometry">
                        <mxPoint x="390" y="382" as="sourcePoint"/>
                        <mxPoint x="390" y="392" as="targetPoint"/>
                    </mxGeometry>
                </mxCell>
                <mxCell id="31" value="" style="endArrow=classic;html=1;entryX=0.5;entryY=0;entryDx=0;entryDy=0;exitX=0.5;exitY=1;exitDx=0;exitDy=0;" edge="1" parent="1" source="10" target="11">
                    <mxGeometry width="50" height="50" relative="1" as="geometry">
                        <mxPoint x="400" y="432" as="sourcePoint"/>
                        <mxPoint x="400.0000000000002" y="462" as="targetPoint"/>
                    </mxGeometry>
                </mxCell>
                <mxCell id="32" value="" style="endArrow=classic;html=1;entryX=0.5;entryY=0;entryDx=0;entryDy=0;exitX=0.5;exitY=1;exitDx=0;exitDy=0;" edge="1" parent="1" source="11" target="12">
                    <mxGeometry width="50" height="50" relative="1" as="geometry">
                        <mxPoint x="400" y="502" as="sourcePoint"/>
                        <mxPoint x="400.0000000000002" y="532" as="targetPoint"/>
                    </mxGeometry>
                </mxCell>
                <mxCell id="33" value="" style="endArrow=classic;html=1;exitX=0.5;exitY=1;exitDx=0;exitDy=0;entryX=0.5;entryY=0;entryDx=0;entryDy=0;" edge="1" parent="1" source="12" target="13">
                    <mxGeometry width="50" height="50" relative="1" as="geometry">
                        <mxPoint x="390" y="572" as="sourcePoint"/>
                        <mxPoint x="390" y="582" as="targetPoint"/>
                    </mxGeometry>
                </mxCell>
                <mxCell id="34" value="" style="endArrow=classic;html=1;entryX=0.5;entryY=0;entryDx=0;entryDy=0;exitX=0.5;exitY=1;exitDx=0;exitDy=0;" edge="1" parent="1" source="13" target="14">
                    <mxGeometry width="50" height="50" relative="1" as="geometry">
                        <mxPoint x="420" y="632" as="sourcePoint"/>
                        <mxPoint x="420.0000000000002" y="662" as="targetPoint"/>
                    </mxGeometry>
                </mxCell>
                <mxCell id="38" value="" style="endArrow=classic;html=1;entryX=0;entryY=0.75;entryDx=0;entryDy=0;exitX=1;exitY=0.5;exitDx=0;exitDy=0;" edge="1" parent="1" source="15" target="14">
                    <mxGeometry width="50" height="50" relative="1" as="geometry">
                        <mxPoint x="320" y="410" as="sourcePoint"/>
                        <mxPoint x="320.0000000000002" y="440" as="targetPoint"/>
                        <Array as="points">
                            <mxPoint x="330" y="295"/>
                            <mxPoint x="330" y="674"/>
                        </Array>
                    </mxGeometry>
                </mxCell>
                <mxCell id="39" value="" style="endArrow=classic;html=1;entryX=0.5;entryY=1;entryDx=0;entryDy=0;" edge="1" parent="1" source="15" target="16">
                    <mxGeometry width="50" height="50" relative="1" as="geometry">
                        <mxPoint x="280" y="240" as="sourcePoint"/>
                        <mxPoint x="185" y="260" as="targetPoint"/>
                        <Array as="points">
                            <mxPoint x="185" y="295"/>
                        </Array>
                    </mxGeometry>
                </mxCell>
                <mxCell id="40" value="" style="endArrow=classic;html=1;entryX=0;entryY=0.5;entryDx=0;entryDy=0;exitX=0.5;exitY=0;exitDx=0;exitDy=0;" edge="1" parent="1" source="16" target="17">
                    <mxGeometry width="50" height="50" relative="1" as="geometry">
                        <mxPoint x="260" y="200" as="sourcePoint"/>
                        <mxPoint x="260.0000000000002" y="230" as="targetPoint"/>
                        <Array as="points">
                            <mxPoint x="185" y="165"/>
                        </Array>
                    </mxGeometry>
                </mxCell>
                <mxCell id="41" value="" style="endArrow=classic;html=1;entryX=0;entryY=0.5;entryDx=0;entryDy=0;exitX=1;exitY=0.5;exitDx=0;exitDy=0;" edge="1" parent="1" source="17" target="3">
                    <mxGeometry width="50" height="50" relative="1" as="geometry">
                        <mxPoint x="310" y="220" as="sourcePoint"/>
                        <mxPoint x="310.0000000000002" y="250" as="targetPoint"/>
                        <Array as="points">
                            <mxPoint x="340" y="165"/>
                            <mxPoint x="340" y="277"/>
                        </Array>
                    </mxGeometry>
                </mxCell>
                <mxCell id="42" value="" style="endArrow=classic;html=1;entryX=0;entryY=0.5;entryDx=0;entryDy=0;exitX=0;exitY=0.5;exitDx=0;exitDy=0;" edge="1" parent="1" source="16" target="20">
                    <mxGeometry width="50" height="50" relative="1" as="geometry">
                        <mxPoint x="90" y="280" as="sourcePoint"/>
                        <mxPoint x="90.00000000000023" y="310" as="targetPoint"/>
                        <Array as="points">
                            <mxPoint x="120" y="220"/>
                            <mxPoint x="120" y="345"/>
                        </Array>
                    </mxGeometry>
                </mxCell>
                <mxCell id="43" value="" style="endArrow=classic;html=1;entryX=0.5;entryY=0;entryDx=0;entryDy=0;exitX=0.5;exitY=1;exitDx=0;exitDy=0;" edge="1" parent="1" source="20" target="21">
                    <mxGeometry width="50" height="50" relative="1" as="geometry">
                        <mxPoint x="150" y="380" as="sourcePoint"/>
                        <mxPoint x="150.00000000000023" y="410" as="targetPoint"/>
                    </mxGeometry>
                </mxCell>
                <mxCell id="44" value="" style="endArrow=classic;html=1;entryX=0.5;entryY=0;entryDx=0;entryDy=0;exitX=0.5;exitY=1;exitDx=0;exitDy=0;" edge="1" parent="1" source="21" target="22">
                    <mxGeometry width="50" height="50" relative="1" as="geometry">
                        <mxPoint x="190" y="450" as="sourcePoint"/>
                        <mxPoint x="190.00000000000023" y="480" as="targetPoint"/>
                    </mxGeometry>
                </mxCell>
                <mxCell id="45" value="" style="endArrow=classic;html=1;entryX=0.5;entryY=0;entryDx=0;entryDy=0;exitX=0.5;exitY=1;exitDx=0;exitDy=0;" edge="1" parent="1" source="22" target="24">
                    <mxGeometry width="50" height="50" relative="1" as="geometry">
                        <mxPoint x="160" y="550" as="sourcePoint"/>
                        <mxPoint x="160.00000000000023" y="580" as="targetPoint"/>
                        <Array as="points">
                            <mxPoint x="77" y="510"/>
                        </Array>
                    </mxGeometry>
                </mxCell>
                <mxCell id="46" value="" style="endArrow=classic;html=1;entryX=0.5;entryY=0;entryDx=0;entryDy=0;exitX=0.5;exitY=1;exitDx=0;exitDy=0;" edge="1" parent="1" source="22" target="23">
                    <mxGeometry width="50" height="50" relative="1" as="geometry">
                        <mxPoint x="190" y="550" as="sourcePoint"/>
                        <mxPoint x="190.00000000000023" y="580" as="targetPoint"/>
                        <Array as="points">
                            <mxPoint x="261" y="510"/>
                        </Array>
                    </mxGeometry>
                </mxCell>
                <mxCell id="47" value="" style="endArrow=classic;html=1;entryX=0.5;entryY=0;entryDx=0;entryDy=0;exitX=0.5;exitY=1;exitDx=0;exitDy=0;" edge="1" parent="1" source="23" target="25">
                    <mxGeometry width="50" height="50" relative="1" as="geometry">
                        <mxPoint x="230" y="600" as="sourcePoint"/>
                        <mxPoint x="230.00000000000023" y="630" as="targetPoint"/>
                        <Array as="points">
                            <mxPoint x="261" y="580"/>
                            <mxPoint x="173" y="580"/>
                        </Array>
                    </mxGeometry>
                </mxCell>
                <mxCell id="48" value="" style="endArrow=classic;html=1;entryX=0.5;entryY=0;entryDx=0;entryDy=0;exitX=0.5;exitY=1;exitDx=0;exitDy=0;" edge="1" parent="1" source="24" target="25">
                    <mxGeometry width="50" height="50" relative="1" as="geometry">
                        <mxPoint x="80" y="580" as="sourcePoint"/>
                        <mxPoint x="80.00000000000023" y="610" as="targetPoint"/>
                        <Array as="points">
                            <mxPoint x="77" y="580"/>
                            <mxPoint x="170" y="580"/>
                        </Array>
                    </mxGeometry>
                </mxCell>
                <mxCell id="49" value="" style="endArrow=classic;html=1;entryX=0.5;entryY=0;entryDx=0;entryDy=0;exitX=0.5;exitY=1;exitDx=0;exitDy=0;" edge="1" parent="1" source="25" target="26">
                    <mxGeometry width="50" height="50" relative="1" as="geometry">
                        <mxPoint x="240" y="690" as="sourcePoint"/>
                        <mxPoint x="240.00000000000023" y="720" as="targetPoint"/>
                    </mxGeometry>
                </mxCell>
                <mxCell id="50" value="&lt;h3&gt;SCENARIO DIAGRAM&lt;br&gt;ONLINE ORDERING SYSTEM&lt;br&gt;ASSIGNMENT # 3&lt;/h3&gt;" style="rounded=1;whiteSpace=wrap;html=1;rotation=90;fillColor=#d80073;fontColor=#ffffff;strokeColor=#A50040;" vertex="1" parent="1">
                    <mxGeometry x="395" y="487" width="230" height="60" as="geometry"/>
                </mxCell>
                <mxCell id="52" value="&amp;lt;1" style="text;html=1;align=center;verticalAlign=middle;resizable=0;points=[];autosize=1;strokeColor=none;fillColor=none;fontColor=#000000;" vertex="1" parent="1">
                    <mxGeometry x="179" y="170" width="30" height="20" as="geometry"/>
                </mxCell>
                <mxCell id="53" value="&amp;gt;1" style="text;html=1;align=center;verticalAlign=middle;resizable=0;points=[];autosize=1;strokeColor=none;fillColor=none;fontColor=#000000;" vertex="1" parent="1">
                    <mxGeometry x="120" y="225" width="30" height="20" as="geometry"/>
                </mxCell>
                <mxCell id="54" value="1" style="text;html=1;align=center;verticalAlign=middle;resizable=0;points=[];autosize=1;strokeColor=none;fillColor=none;fontColor=#000000;" vertex="1" parent="1">
                    <mxGeometry x="400" y="180" width="20" height="20" as="geometry"/>
                </mxCell>
                <mxCell id="55" value="2" style="text;html=1;align=center;verticalAlign=middle;resizable=0;points=[];autosize=1;strokeColor=none;fillColor=none;fontColor=#000000;" vertex="1" parent="1">
                    <mxGeometry x="390" y="240" width="20" height="20" as="geometry"/>
                </mxCell>
                <mxCell id="56" value="4" style="text;html=1;align=center;verticalAlign=middle;resizable=0;points=[];autosize=1;strokeColor=none;fillColor=none;fontColor=#000000;" vertex="1" parent="1">
                    <mxGeometry x="400" y="310" width="20" height="20" as="geometry"/>
                </mxCell>
                <mxCell id="57" value="YES" style="text;html=1;align=center;verticalAlign=middle;resizable=0;points=[];autosize=1;strokeColor=none;fillColor=none;fontColor=#000000;" vertex="1" parent="1">
                    <mxGeometry x="395" y="231" width="40" height="20" as="geometry"/>
                </mxCell>
                <mxCell id="58" value="" style="endArrow=classic;html=1;exitX=1;exitY=0.5;exitDx=0;exitDy=0;entryX=0;entryY=0.5;entryDx=0;entryDy=0;" edge="1" parent="1" source="4" target="7">
                    <mxGeometry width="50" height="50" relative="1" as="geometry">
                        <mxPoint x="470" y="200" as="sourcePoint"/>
                        <mxPoint x="470" y="234" as="targetPoint"/>
                    </mxGeometry>
                </mxCell>
                <mxCell id="59" value="NO" style="text;html=1;align=center;verticalAlign=middle;resizable=0;points=[];autosize=1;strokeColor=none;fillColor=none;fontColor=#000000;" vertex="1" parent="1">
                    <mxGeometry x="445" y="190" width="30" height="20" as="geometry"/>
                </mxCell>
                <mxCell id="60" value="3" style="text;html=1;align=center;verticalAlign=middle;resizable=0;points=[];autosize=1;strokeColor=none;fillColor=none;fontColor=#000000;" vertex="1" parent="1">
                    <mxGeometry x="480" y="190" width="20" height="20" as="geometry"/>
                </mxCell>
                <mxCell id="61" value="" style="endArrow=classic;html=1;exitX=0.5;exitY=0;exitDx=0;exitDy=0;" edge="1" parent="1" source="7">
                    <mxGeometry width="50" height="50" relative="1" as="geometry">
                        <mxPoint x="530" y="170" as="sourcePoint"/>
                        <mxPoint x="400" y="170" as="targetPoint"/>
                        <Array as="points">
                            <mxPoint x="547" y="170"/>
                        </Array>
                    </mxGeometry>
                </mxCell>
                <mxCell id="62" value="5" style="text;html=1;align=center;verticalAlign=middle;resizable=0;points=[];autosize=1;strokeColor=none;fillColor=none;fontColor=#000000;" vertex="1" parent="1">
                    <mxGeometry x="400" y="376" width="20" height="20" as="geometry"/>
                </mxCell>
                <mxCell id="63" value="7" style="text;html=1;align=center;verticalAlign=middle;resizable=0;points=[];autosize=1;strokeColor=none;fillColor=none;fontColor=#000000;" vertex="1" parent="1">
                    <mxGeometry x="400" y="440" width="20" height="20" as="geometry"/>
                </mxCell>
                <mxCell id="64" value="8" style="text;html=1;align=center;verticalAlign=middle;resizable=0;points=[];autosize=1;strokeColor=none;fillColor=none;fontColor=#000000;" vertex="1" parent="1">
                    <mxGeometry x="400" y="500" width="20" height="20" as="geometry"/>
                </mxCell>
                <mxCell id="65" value="9" style="text;html=1;align=center;verticalAlign=middle;resizable=0;points=[];autosize=1;strokeColor=none;fillColor=none;fontColor=#000000;" vertex="1" parent="1">
                    <mxGeometry x="400" y="570" width="20" height="20" as="geometry"/>
                </mxCell>
                <mxCell id="66" value="" style="endArrow=classic;html=1;exitX=0;exitY=0.5;exitDx=0;exitDy=0;entryX=1;entryY=0.25;entryDx=0;entryDy=0;" edge="1" parent="1" source="10" target="15">
                    <mxGeometry width="50" height="50" relative="1" as="geometry">
                        <mxPoint x="290" y="380" as="sourcePoint"/>
                        <mxPoint x="290" y="414" as="targetPoint"/>
                        <Array as="points">
                            <mxPoint x="340" y="407"/>
                            <mxPoint x="340" y="288"/>
                        </Array>
                    </mxGeometry>
                </mxCell>
                <mxCell id="67" value="6" style="text;html=1;align=center;verticalAlign=middle;resizable=0;points=[];autosize=1;strokeColor=none;fillColor=none;fontColor=#000000;" vertex="1" parent="1">
                    <mxGeometry x="310" y="270" width="20" height="20" as="geometry"/>
                </mxCell>
                <mxCell id="68" value="10" style="text;html=1;align=center;verticalAlign=middle;resizable=0;points=[];autosize=1;strokeColor=none;fillColor=none;fontColor=#000000;" vertex="1" parent="1">
                    <mxGeometry x="387" y="630" width="30" height="20" as="geometry"/>
                </mxCell>
                <mxCell id="69" value="11" style="text;html=1;align=center;verticalAlign=middle;resizable=0;points=[];autosize=1;strokeColor=none;fillColor=none;fontColor=#000000;" vertex="1" parent="1">
                    <mxGeometry x="335" y="640" width="30" height="20" as="geometry"/>
                </mxCell>
                <mxCell id="70" value="12" style="text;html=1;align=center;verticalAlign=middle;resizable=0;points=[];autosize=1;strokeColor=none;fillColor=none;fontColor=#000000;" vertex="1" parent="1">
                    <mxGeometry x="185" y="250" width="30" height="20" as="geometry"/>
                </mxCell>
                <mxCell id="71" value="13" style="text;html=1;align=center;verticalAlign=middle;resizable=0;points=[];autosize=1;strokeColor=none;fillColor=none;fontColor=#000000;" vertex="1" parent="1">
                    <mxGeometry x="115" y="310" width="30" height="20" as="geometry"/>
                </mxCell>
                <mxCell id="72" value="14" style="text;html=1;align=center;verticalAlign=middle;resizable=0;points=[];autosize=1;strokeColor=none;fillColor=none;fontColor=#000000;" vertex="1" parent="1">
                    <mxGeometry x="195" y="140" width="30" height="20" as="geometry"/>
                </mxCell>
                <mxCell id="73" value="15" style="text;html=1;align=center;verticalAlign=middle;resizable=0;points=[];autosize=1;strokeColor=none;fillColor=none;fontColor=#000000;" vertex="1" parent="1">
                    <mxGeometry x="335" y="250" width="30" height="20" as="geometry"/>
                </mxCell>
                <mxCell id="74" value="16" style="text;html=1;align=center;verticalAlign=middle;resizable=0;points=[];autosize=1;strokeColor=none;fillColor=none;fontColor=#000000;" vertex="1" parent="1">
                    <mxGeometry x="175" y="380" width="30" height="20" as="geometry"/>
                </mxCell>
                <mxCell id="75" value="17" style="text;html=1;align=center;verticalAlign=middle;resizable=0;points=[];autosize=1;strokeColor=none;fillColor=none;fontColor=#000000;" vertex="1" parent="1">
                    <mxGeometry x="175" y="440" width="30" height="20" as="geometry"/>
                </mxCell>
                <mxCell id="76" value="18" style="text;html=1;align=center;verticalAlign=middle;resizable=0;points=[];autosize=1;strokeColor=none;fillColor=none;fontColor=#000000;" vertex="1" parent="1">
                    <mxGeometry x="75" y="520" width="30" height="20" as="geometry"/>
                </mxCell>
                <mxCell id="77" value="19" style="text;html=1;align=center;verticalAlign=middle;resizable=0;points=[];autosize=1;strokeColor=none;fillColor=none;fontColor=#000000;" vertex="1" parent="1">
                    <mxGeometry x="255" y="520" width="30" height="20" as="geometry"/>
                </mxCell>
                <mxCell id="78" value="YES" style="text;html=1;align=center;verticalAlign=middle;resizable=0;points=[];autosize=1;strokeColor=none;fillColor=none;fontColor=#000000;" vertex="1" parent="1">
                    <mxGeometry x="110" y="560" width="40" height="20" as="geometry"/>
                </mxCell>
                <mxCell id="79" value="YES" style="text;html=1;align=center;verticalAlign=middle;resizable=0;points=[];autosize=1;strokeColor=none;fillColor=none;fontColor=#000000;" vertex="1" parent="1">
                    <mxGeometry x="190" y="560" width="40" height="20" as="geometry"/>
                </mxCell>
                <mxCell id="80" value="20" style="text;html=1;align=center;verticalAlign=middle;resizable=0;points=[];autosize=1;strokeColor=none;fillColor=none;fontColor=#000000;" vertex="1" parent="1">
                    <mxGeometry x="175" y="590" width="30" height="20" as="geometry"/>
                </mxCell>
                <mxCell id="81" value="21" style="text;html=1;align=center;verticalAlign=middle;resizable=0;points=[];autosize=1;strokeColor=none;fillColor=none;fontColor=#000000;" vertex="1" parent="1">
                    <mxGeometry x="175" y="650" width="30" height="20" as="geometry"/>
                </mxCell>
            </root>
        </mxGraphModel>
    </diagram>
</mxfile>